HIERARCHY
ROOT SimulationBone
{
	OFFSET 0.000000 0.000000 0.000000
	CHANNELS 6 Xposition Yposition Zposition Zrotation Yrotation Xrotation 
	JOINT Hips
	{
		OFFSET 0.000000 0.000000 0.000000
		CHANNELS 6 Xposition Yposition Zposition Zrotation Yrotation Xrotation 
		JOINT RightUpLeg
		{
			OFFSET 0.103459 1.857831 10.548505
			CHANNELS 3 Zrotation Yrotation Xrotation
			JOINT RightLeg
			{
				OFFSET 43.500004 -0.000023 -0.000004
				CHANNELS 3 Zrotation Yrotation Xrotation
				JOINT RightFoot
				{
					OFFSET 42.372204 0.000019 -0.000006
					CHANNELS 3 Zrotation Yrotation Xrotation
					JOINT RightToe
					{
						OFFSET 17.300005 0.000001 -0.000002
						CHANNELS 3 Zrotation Yrotation Xrotation
						End Site
						{
							OFFSET 0.000000 0.000000 0.000000
						}
					}
				}
			}
		}
		JOINT LeftUpLeg
		{
			OFFSET 0.103461 1.857828 -10.548505
			CHANNELS 3 Zrotation Yrotation Xrotation
			JOINT LeftLeg
			{
				OFFSET 43.500046 -0.000019 0.000006
				CHANNELS 3 Zrotation Yrotation Xrotation
				JOINT LeftFoot
				{
					OFFSET 42.372261 -0.000015 0.000011
					CHANNELS 3 Zrotation Yrotation Xrotation
					JOINT LeftToe
					{
						OFFSET 17.299999 -0.000003 0.000002
						CHANNELS 3 Zrotation Yrotation Xrotation
						End Site
						{
							OFFSET 0.000000 0.000000 0.000000
						}
					}
				}
			}
		}
		JOINT Spine
		{
			OFFSET 6.901964 -2.603731 0.000000
			CHANNELS 3 Zrotation Yrotation Xrotation
			JOINT Spine1
			{
				OFFSET 12.588102 -0.000003 0.000000
				CHANNELS 3 Zrotation Yrotation Xrotation
				JOINT Spine2
				{
					OFFSET 12.343204 0.000002 0.000000
					CHANNELS 3 Zrotation Yrotation Xrotation
					JOINT Neck
					{
						OFFSET 25.832891 -0.000013 0.000001
						CHANNELS 3 Zrotation Yrotation Xrotation
						JOINT Head
						{
							OFFSET 11.766613 0.000015 -0.000000
							CHANNELS 3 Zrotation Yrotation Xrotation
							End Site
							{
								OFFSET 0.000000 0.000000 0.000000
							}
						}
					}
					JOINT RightShoulder
					{
						OFFSET 19.745911 -1.480375 6.000106
						CHANNELS 3 Zrotation Yrotation Xrotation
						JOINT RightArm
						{
							OFFSET 11.284125 -0.000012 -0.000024
							CHANNELS 3 Zrotation Yrotation Xrotation
							JOINT RightForeArm
							{
								OFFSET 33.000050 0.000007 0.000027
								CHANNELS 3 Zrotation Yrotation Xrotation
								JOINT RightHand
								{
									OFFSET 25.200005 0.000018 0.000002
									CHANNELS 3 Zrotation Yrotation Xrotation
									End Site
									{
										OFFSET 0.000000 0.000000 0.000000
									}
								}
							}
						}
					}
					JOINT LeftShoulder
					{
						OFFSET 19.746092 -1.480375 -6.000074
						CHANNELS 3 Zrotation Yrotation Xrotation
						JOINT LeftArm
						{
							OFFSET 11.284139 -0.000017 -0.000020
							CHANNELS 3 Zrotation Yrotation Xrotation
							JOINT LeftForeArm
							{
								OFFSET 33.000099 0.000021 0.000012
								CHANNELS 3 Zrotation Yrotation Xrotation
								JOINT LeftHand
								{
									OFFSET 25.199780 0.000137 0.000427
									CHANNELS 3 Zrotation Yrotation Xrotation
									End Site
									{
										OFFSET 0.000000 0.000000 0.000000
									}
								}
							}
						}
					}
				}
			}
		}
	}
}
MOTION
Frames: 9
Frame Time: 0.033333
-263.274386 0.000000 -84.598844 0.000000 -70.555796 0.000000 -1.659808 87.796562 0.091608 90.234861 -1.671243 -179.353196 154.729780 11.942209 -174.355345 -20.091790 -3.887810 -11.372896 77.139754 7.000556 -4.962954 21.454558 0.003111 0.000017 -166.718156 -6.924605 -169.846560 -15.856513 3.008573 2.767433 93.069558 -2.784471 -6.424652 21.454551 -0.003076 0.000001 7.454906 -1.954620 2.506359 4.813527 -4.010891 4.932815 4.495855 -3.981204 4.956894 -6.840222 -7.412966 -0.747709 -16.941278 3.580886 -4.603171 157.508766 -77.569140 21.502045 18.750626 60.034023 41.884086 -35.848180 -15.954265 1.443664 12.709489 -2.123096 24.268910 178.415210 78.160512 -0.168632 -6.296366 -63.023481 -41.640440 -36.741715 18.554562 -1.606282 13.847552 11.178151 -1.020016 
-262.614719 0.000000 -82.595450 0.000000 -72.601658 0.000000 -1.560602 87.874870 0.494679 89.960629 -1.581575 -178.934730 157.440942 11.717001 -172.863618 -17.900835 -4.275232 -11.693144 75.504429 8.480494 -0.133949 21.454557 0.003105 0.000017 -165.305891 -6.715508 -170.424353 -15.210749 3.126285 2.131159 91.271265 -2.500014 -6.660707 21.454553 -0.003095 0.000001 7.181413 -2.104447 2.686426 4.253383 -4.305134 5.298100 3.935807 -4.273242 5.323948 -6.856997 -7.768510 -0.116667 -16.349398 4.483615 -4.394742 162.292671 -77.822909 16.621498 19.724697 59.135928 41.389536 -36.596649 -16.021266 1.465935 12.549658 -2.498274 24.555362 176.865809 78.570815 -1.737137 -2.318051 -63.636572 -46.849432 -34.501833 17.556339 -1.488840 14.101533 8.640813 -2.423464 
-261.999474 0.000000 -80.683693 0.000000 -74.404433 0.000000 -1.391234 88.444168 0.754275 89.898747 -2.543843 -178.613390 160.868358 12.565904 -172.014981 -12.795689 -4.181884 -13.065462 71.023107 11.752439 7.170164 21.454558 0.003106 0.000018 -163.767132 -5.573902 -169.235682 -14.325389 2.414881 0.706977 88.503289 -1.652826 -6.462639 21.454551 -0.003087 0.000000 7.006268 -2.475728 2.649157 3.888586 -5.037918 5.219540 3.570587 -5.006486 5.249822 -7.076984 -7.727889 0.789223 -15.924134 5.353089 -3.779028 164.563573 -77.750570 14.313222 20.647693 58.124295 40.415493 -37.090526 -16.101037 1.483151 12.552651 -3.439397 23.383086 175.688899 78.893937 -2.926727 0.464932 -63.909062 -51.361274 -33.323970 16.909001 -1.420830 13.926839 5.532618 -4.202425 
-261.423950 0.000000 -78.854670 0.000000 -75.972886 0.000000 -1.072097 88.641998 1.065149 89.857371 -3.299733 -177.504285 161.691178 13.310591 -172.094744 -13.829058 -4.090515 -13.441251 71.617593 12.295909 8.318612 21.454557 0.003104 0.000017 -163.598098 -4.715309 -168.383943 -16.320293 1.875132 0.051257 86.470174 -1.223122 -5.970283 21.454553 -0.003081 -0.000004 6.919164 -2.858716 2.358044 3.713042 -5.790540 4.630080 3.394328 -5.762643 4.664962 -7.746902 -6.880625 1.543264 -15.878798 5.409264 -2.794321 164.320814 -77.711201 14.562276 20.116640 56.868859 38.820681 -36.251386 -15.968485 1.454204 12.374553 -4.742926 20.649248 176.654005 78.139038 -1.964136 2.314214 -63.441577 -53.771385 -32.702580 16.569090 -1.385510 13.391318 2.800947 -5.830761 
-260.883447 0.000000 -77.099482 0.000000 -77.317389 0.000000 -0.589490 88.879227 1.377553 90.587298 -3.771416 -176.557646 162.770826 13.264494 -175.707955 -16.348915 -3.920819 -11.497502 73.472475 10.945548 8.957004 21.454558 0.003099 0.000015 -163.534755 -4.027806 -167.425231 -19.857923 1.056284 -0.684722 83.886082 -0.472264 -4.191142 21.454553 -0.003087 -0.000001 7.047894 -3.143309 2.123720 3.973823 -6.356751 4.145657 3.654504 -6.331752 4.184016 -8.072531 -6.404469 2.254887 -16.148488 5.794195 -2.090498 164.412612 -77.411226 14.482661 16.563366 55.611134 36.327362 -33.398696 -16.306614 1.410353 12.540085 -4.878421 18.741044 176.607792 78.090523 -2.012461 5.173951 -63.906119 -55.028246 -32.681656 16.499449 -1.380586 13.219634 2.765705 -5.861750 
-260.373263 0.000000 -75.409225 0.000000 -78.449115 0.000000 -0.045787 89.180992 1.487291 91.395809 -3.841889 -177.154917 164.307686 12.682601 -177.471155 -17.754944 -4.072640 -11.232606 75.079577 10.645401 9.133973 21.454560 0.003117 0.000018 -164.455382 -2.354993 -167.092273 -25.302439 0.561067 -2.587382 80.920338 1.471756 -1.208857 21.454550 -0.003085 0.000001 7.091430 -3.271490 2.245733 4.049875 -6.618572 4.383927 3.730487 -6.592148 4.423876 -7.770313 -6.171664 2.972123 -15.997466 5.869437 -1.292669 163.567321 -77.056931 15.360494 12.513279 55.072737 32.488283 -30.380763 -16.619814 1.367080 13.551509 -4.289050 19.594163 175.303198 78.842970 -3.320735 8.529102 -64.336516 -57.595987 -33.029958 16.628942 -1.396408 13.511678 4.363324 -3.336338 
-259.888697 0.000000 -73.774998 0.000000 -79.379452 0.000000 0.437136 89.461983 1.338486 92.038700 -3.948288 -178.753592 166.036120 12.464402 -177.834398 -18.071818 -4.214168 -12.276845 76.418492 11.102260 8.676971 21.454558 0.003117 0.000017 -167.455611 0.864893 -164.524367 -33.931447 -1.272651 -6.689836 77.536526 5.970883 4.402848 21.454555 -0.003093 0.000000 7.030322 -3.337001 2.432909 3.913975 -6.753282 4.760901 3.594682 -6.724595 4.801658 -7.329422 -5.864765 3.825250 -15.342082 5.740225 -0.225287 164.761375 -76.676981 14.160889 8.769933 54.926329 28.121835 -28.247243 -17.035957 1.352740 14.581250 -3.286173 21.897054 173.863517 79.861174 -4.754776 10.407729 -63.906658 -59.675752 -34.220959 16.793709 -1.433325 13.274133 4.607579 -2.329614 
-259.425049 0.000000 -72.187899 0.000000 -80.119605 0.000000 0.842910 89.540047 1.048431 92.913907 -4.370671 179.556365 167.945336 12.731008 -177.648535 -18.238237 -4.674993 -13.635147 77.805062 11.779255 8.221071 21.454557 0.003102 0.000017 -171.420782 4.897299 -163.439952 -44.155704 -2.803464 -9.725747 73.870340 9.838673 8.855828 21.454545 -0.003091 0.000002 7.049946 -3.401030 2.478071 3.948173 -6.883508 4.848478 3.628836 -6.854278 4.890003 -6.717623 -5.281658 4.707400 -14.879818 5.367220 1.045424 166.533126 -76.267934 12.371271 5.207133 54.596137 24.678838 -27.130025 -17.126720 1.338406 15.269730 -3.561470 21.848455 174.076974 80.751653 -4.511213 9.772408 -62.794198 -59.366987 -36.124884 16.857228 -1.481540 12.792751 3.978731 -3.932172 
-258.977618 0.000000 -70.639027 0.000000 -80.680345 0.000000 1.178996 89.397957 0.610562 93.765306 -5.116000 178.133165 169.739176 13.569510 -179.120509 -18.523116 -4.728400 -13.920489 79.468657 11.816752 8.291352 21.454560 0.003113 0.000017 -176.491624 9.163696 -164.027826 -55.415032 -3.793291 -10.959484 70.222227 12.488460 12.547980 21.454553 -0.003093 0.000000 7.130006 -3.472799 2.353352 4.113786 -7.026045 4.591438 3.794194 -6.998347 4.633854 -6.036307 -5.013553 5.775478 -15.204512 5.502225 2.181600 166.884689 -75.794322 12.032552 2.011755 53.971943 21.764664 -27.269091 -17.039678 1.335317 15.068024 -4.155372 20.606961 173.121513 81.152893 -5.467942 8.099800 -61.221028 -56.380879 -38.920061 17.171818 -1.571238 12.270037 3.564655 -5.589761 
